<?plantuml 1.2026.2?><svg xmlns="http://www.w3.org/2000/svg" xmlns:xlink="http://www.w3.org/1999/xlink" contentStyleType="text/css" data-diagram-type="SEQUENCE" height="356px" preserveAspectRatio="none" style="width:573px;height:356px;background:#FFFFFF;" version="1.1" viewBox="0 0 573 356" width="573px" zoomAndPan="magnify"><title>Forge: ignite</title><defs/><g><text fill="#000000" font-family="sans-serif" font-size="14" font-weight="bold" lengthAdjust="spacing" textLength="101.8486" x="235.0042" y="27.9951">Forge: ignite</text><g class="participant-lifeline" data-entity-uid="part1" data-qualified-name="Server" id="part1-lifeline"><g><title>Server</title><rect fill="#000000" fill-opacity="0.00000" height="247.9297" width="8" x="77.9551" y="73.5938"/><line style="stroke:#181818;stroke-width:0.5;stroke-dasharray:5,5;" x1="81" x2="81" y1="73.5938" y2="321.5234"/></g></g><g class="participant-lifeline" data-entity-uid="part2" data-qualified-name="Forge" id="part2-lifeline"><g><title>Forge</title><rect fill="#000000" fill-opacity="0.00000" height="247.9297" width="8" x="372.1938" y="73.5938"/><line style="stroke:#181818;stroke-width:0.5;stroke-dasharray:5,5;" x1="375.2568" x2="375.2568" y1="73.5938" y2="321.5234"/></g></g><g class="participant-lifeline" data-entity-uid="part3" data-qualified-name="Credit" id="part3-lifeline"><g><title>CREDIT token</title><rect fill="#000000" fill-opacity="0.00000" height="247.9297" width="8" x="508.9028" y="73.5938"/><line style="stroke:#181818;stroke-width:0.5;stroke-dasharray:5,5;" x1="511.9487" x2="511.9487" y1="73.5938" y2="321.5234"/></g></g><g class="participant participant-head" data-entity-uid="part1" data-qualified-name="Server" id="part1-head"><rect fill="#EEEEEE" height="30.2969" rx="2.5" ry="2.5" style="stroke:#181818;stroke-width:0.5;" width="59.9102" x="52" y="42.2969"/><text fill="#000000" font-family="sans-serif" font-size="14" lengthAdjust="spacing" textLength="45.9102" x="59" y="62.292">Server</text></g><g class="participant participant-tail" data-entity-uid="part1" data-qualified-name="Server" id="part1-tail"><rect fill="#EEEEEE" height="30.2969" rx="2.5" ry="2.5" style="stroke:#181818;stroke-width:0.5;" width="59.9102" x="52" y="320.5234"/><text fill="#000000" font-family="sans-serif" font-size="14" lengthAdjust="spacing" textLength="45.9102" x="59" y="340.5186">Server</text></g><g class="participant participant-head" data-entity-uid="part2" data-qualified-name="Forge" id="part2-head"><rect fill="#E6E0FA" height="30.2969" rx="2.5" ry="2.5" style="stroke:#181818;stroke-width:0.5;" width="53.874" x="349.2568" y="42.2969"/><text fill="#000000" font-family="sans-serif" font-size="14" lengthAdjust="spacing" textLength="39.874" x="356.2568" y="62.292">Forge</text></g><g class="participant participant-tail" data-entity-uid="part2" data-qualified-name="Forge" id="part2-tail"><rect fill="#E6E0FA" height="30.2969" rx="2.5" ry="2.5" style="stroke:#181818;stroke-width:0.5;" width="53.874" x="349.2568" y="320.5234"/><text fill="#000000" font-family="sans-serif" font-size="14" lengthAdjust="spacing" textLength="39.874" x="356.2568" y="340.5186">Forge</text></g><g class="participant participant-head" data-entity-uid="part3" data-qualified-name="Credit" id="part3-head"><rect fill="#E6E0FA" height="30.2969" rx="2.5" ry="2.5" style="stroke:#181818;stroke-width:0.5;" width="109.9082" x="457.9487" y="42.2969"/><text fill="#000000" font-family="sans-serif" font-size="14" lengthAdjust="spacing" textLength="95.9082" x="464.9487" y="62.292">CREDIT token</text></g><g class="participant participant-tail" data-entity-uid="part3" data-qualified-name="Credit" id="part3-tail"><rect fill="#E6E0FA" height="30.2969" rx="2.5" ry="2.5" style="stroke:#181818;stroke-width:0.5;" width="109.9082" x="457.9487" y="320.5234"/><text fill="#000000" font-family="sans-serif" font-size="14" lengthAdjust="spacing" textLength="95.9082" x="464.9487" y="340.5186">CREDIT token</text></g><path d="M5,88.5938 L5,113.5938 L160,113.5938 L160,98.5938 L150,88.5938 L5,88.5938" fill="#FEFFDD" style="stroke:#181818;stroke-width:0.5;"/><path d="M150,88.5938 L150,98.5938 L160,98.5938 L150,88.5938" fill="#FEFFDD" style="stroke:#181818;stroke-width:0.5;"/><text fill="#000000" font-family="sans-serif" font-size="13" lengthAdjust="spacing" textLength="134.145" x="11" y="105.6606">signs the attestation</text><g class="message" data-entity-1="part1" data-entity-2="part2" id="msg1"><polygon fill="#181818" points="364.1938,135.8594,374.1938,139.8594,364.1938,143.8594,368.1938,139.8594" style="stroke:#181818;stroke-width:1;"/><line style="stroke:#181818;stroke-width:1;" x1="81.9551" x2="370.1938" y1="139.8594" y2="139.8594"/><text fill="#000000" font-family="sans-serif" font-size="13" lengthAdjust="spacing" textLength="270.2388" x="88.9551" y="134.7935">ignite(payer, amount, power, attestation)</text></g><path d="M279,152.8594 L279,177.8594 L471,177.8594 L471,162.8594 L461,152.8594 L279,152.8594" fill="#FEFFDD" style="stroke:#181818;stroke-width:0.5;"/><path d="M461,152.8594 L461,162.8594 L471,162.8594 L461,152.8594" fill="#FEFFDD" style="stroke:#181818;stroke-width:0.5;"/><text fill="#000000" font-family="sans-serif" font-size="13" lengthAdjust="spacing" textLength="171.5581" x="285" y="169.9263">verify signature, expiry, id</text><path d="M277,187.9922 L277,212.9922 L473,212.9922 L473,197.9922 L463,187.9922 L277,187.9922" fill="#FEFFDD" style="stroke:#181818;stroke-width:0.5;"/><path d="M463,187.9922 L463,197.9922 L473,197.9922 L463,187.9922" fill="#FEFFDD" style="stroke:#181818;stroke-width:0.5;"/><text fill="#000000" font-family="sans-serif" font-size="13" lengthAdjust="spacing" textLength="175.8809" x="283" y="205.0591">compute cost and duration</text><g class="message" data-entity-1="part2" data-entity-2="part3" id="msg2"><polygon fill="#181818" points="500.9028,235.2578,510.9028,239.2578,500.9028,243.2578,504.9028,239.2578" style="stroke:#181818;stroke-width:1;"/><line style="stroke:#181818;stroke-width:1;" x1="376.1938" x2="506.9028" y1="239.2578" y2="239.2578"/><text fill="#000000" font-family="sans-serif" font-size="13" lengthAdjust="spacing" textLength="112.709" x="383.1938" y="234.1919">burn(payer, cost)</text></g><path d="M317,252.2578 L317,277.2578 L435,277.2578 L435,262.2578 L425,252.2578 L317,252.2578" fill="#FEFFDD" style="stroke:#181818;stroke-width:0.5;"/><path d="M425,252.2578 L425,262.2578 L435,262.2578 L425,252.2578" fill="#FEFFDD" style="stroke:#181818;stroke-width:0.5;"/><text fill="#000000" font-family="sans-serif" font-size="13" lengthAdjust="spacing" textLength="97.1382" x="323" y="269.3247">store the entry</text><g class="message" data-entity-1="part2" data-entity-2="part1" id="msg3"><polygon fill="#181818" points="92.9551,299.5234,82.9551,303.5234,92.9551,307.5234,88.9551,303.5234" style="stroke:#181818;stroke-width:1;"/><line style="stroke:#181818;stroke-width:1;stroke-dasharray:2,2;" x1="86.9551" x2="375.1938" y1="303.5234" y2="303.5234"/><text fill="#000000" font-family="sans-serif" font-size="13" lengthAdjust="spacing" textLength="34.3726" x="98.9551" y="298.4575">entry</text></g><?plantuml-src RO_1JiD034Jl-GghN40AKaySSa129PMu5dvWIKonQEsLrmlaxzbw6o22FSrQpvuP8piWR4Nts07jcGoR9WOr6YW6DbWzehwZhY0ag18kUdzBp4yuvQf0D_rwUxU4Dhl-_k49JDwGdTqeZcJVSCDY278ogLuTf18gWRqY13DC5eo4ctEIwzjbzCiO9jGMmb4oMmjHFlpxitdro-AyMYIzJ6uKB2ksW9-HT6g1nh_q8CUOosoGP11uX35hpLHxbqYrL0VFMNbETCB_yKucYjuEsNIQRvGZSt-VVm40?></g></svg>